<svg width="101" height="102" viewBox="0 0 101 102" fill="none" xmlns="http://www.w3.org/2000/svg">
<g id="Group 32">
<mask id="mask0_12_320" style="mask-type:alpha" maskUnits="userSpaceOnUse" x="0" y="0" width="101" height="102">
<circle id="Ellipse 3" cx="50.5" cy="51" r="50.5" fill="#D9D9D9"/>
</mask>
<g mask="url(#mask0_12_320)">
<path id="Vector" d="M18.2396 0.5H84.7604C94.8458 0.5 103 8.70086 103 18.844V83.156C103 93.2991 94.8458 101.5 84.7604 101.5H18.2396C8.15417 101.5 0 93.2991 0 83.156V18.844C0 8.70086 8.15417 0.5 18.2396 0.5Z" fill="#330000"/>
<path id="Vector_2" d="M50.5222 64.5344H34.617L31.3676 74.6797C31.2821 75.0683 30.94 75.3273 30.5552 75.2841H22.5172C22.0468 75.2841 21.9186 75.0251 22.0468 74.5071L35.8142 34.4868C35.9425 34.0551 36.0707 33.5802 36.2418 33.0621C36.4128 32.1555 36.4983 31.2057 36.4983 30.2559C36.4555 30.0401 36.6266 29.8242 36.8403 29.7811H47.9141C48.2561 29.7811 48.4271 29.9106 48.4699 30.1264L64.0758 74.5934C64.204 75.0683 64.0758 75.2841 63.6482 75.2841H54.7122C54.413 75.3273 54.1137 75.1115 54.0282 74.8093L50.5222 64.5344ZM37.0969 55.7705H47.9568C47.7003 54.8639 47.3583 53.7846 46.9734 52.6621C46.5886 51.4965 46.2038 50.2445 45.819 48.9493C45.3915 47.611 45.0067 46.3159 44.5791 44.9775C44.1516 43.6392 43.7668 42.3872 43.4247 41.1352C43.0827 39.9264 42.7834 38.804 42.4841 37.7678H42.3986C42.0138 39.6242 41.5435 41.4806 40.9449 43.337C40.3036 45.4093 39.6622 47.5678 38.9781 49.7264C38.3795 51.9282 37.7382 53.9573 37.0969 55.7705ZM73.6103 37.3361C72.1994 37.3793 70.8312 36.8181 69.805 35.8251C68.8217 34.7458 68.3086 33.3211 68.3513 31.8533C68.3086 30.3855 68.8644 29.004 69.8905 28.011C70.9167 27.0181 72.2849 26.5 73.6958 26.5C75.3633 26.5 76.646 27.0181 77.5866 28.011C78.5272 29.0471 79.0403 30.4286 78.9975 31.8533C79.0403 33.3211 78.5272 34.7458 77.5011 35.8251C76.5177 36.8612 75.064 37.4225 73.6103 37.3361ZM68.8217 74.8093V41.567C68.8217 41.1352 68.9927 40.9626 69.3775 40.9626H77.8431C78.2279 40.9626 78.3989 41.1784 78.3989 41.567V74.8093C78.3989 75.2841 78.2279 75.5 77.8431 75.5H69.463C69.0354 75.5 68.8217 75.241 68.8217 74.8093Z" fill="#FF9A00"/>
</g>
</g>
</svg>
