<svg width="120" height="120" viewBox="0 0 120 120" fill="none" xmlns="http://www.w3.org/2000/svg">
<g id="Group 7">
<path id="background" d="M60 119.955C93.1371 119.955 120 93.102 120 59.9774C120 26.8528 93.1371 0 60 0C26.8629 0 0 26.8528 0 59.9774C0 93.102 26.8629 119.955 60 119.955Z" fill="#34344A"/>
<path id="behance" d="M42.3889 32.8003C44.9761 32.8003 47.3377 33.0306 49.4737 33.4864C51.6097 33.9423 53.4337 34.6908 54.9553 35.732C56.4769 36.7732 57.6577 38.1551 58.4977 39.8824C59.3377 41.6098 59.7553 43.7402 59.7553 46.2784C59.7553 49.0182 59.1313 51.3021 57.8881 53.1302C56.6449 54.9583 54.8017 56.4554 52.3681 57.6213C55.7185 58.5858 58.2193 60.2747 59.8705 62.6834C61.5217 65.0921 62.3473 67.9998 62.3473 71.4018C62.3473 74.1415 61.8145 76.5166 60.7489 78.5223C59.6833 80.5279 58.2481 82.1641 56.4433 83.4308C54.6385 84.7023 52.5841 85.638 50.2753 86.2474C47.9521 86.8567 45.5569 87.1638 43.1569 87.159H16.8001V32.8003H42.3889ZM40.8673 54.8C42.9985 54.8 44.7505 54.2914 46.1233 53.279C47.4961 52.2618 48.1825 50.616 48.1777 48.332C48.1777 47.0653 47.9473 46.0241 47.4913 45.2132C47.0353 44.4023 46.4257 43.7642 45.6625 43.3083C44.8993 42.8525 44.0257 42.5358 43.0369 42.3583C42.0193 42.1808 40.9873 42.0896 39.9505 42.0944H28.7617V54.8096L40.8673 54.8ZM41.5537 77.8649C42.6817 77.8697 43.8049 77.7546 44.9041 77.5242C45.9697 77.2939 46.9105 76.9149 47.7217 76.3823C48.5329 75.8497 49.1809 75.1251 49.6657 74.2135C50.1457 73.3018 50.3905 72.1311 50.3905 70.7108C50.3905 67.9231 49.6033 65.927 48.0289 64.7371C46.4545 63.5423 44.3713 62.9473 41.7841 62.9473H28.7617V77.8697L41.5537 77.8649ZM77.3905 76.7229C79.0129 78.2968 81.3505 79.0837 84.3985 79.0837C86.5825 79.0837 88.4593 78.5367 90.0337 77.4475C91.6081 76.3583 92.5729 75.2019 92.9281 73.9832H102.447C100.925 78.7046 98.5873 82.0777 95.4385 84.1074C92.2897 86.137 88.4833 87.1542 84.0145 87.1542C80.9185 87.1542 78.1249 86.66 75.6385 85.6716C73.1521 84.6832 71.0449 83.2725 69.3169 81.4444C67.5889 79.6163 66.2545 77.4379 65.3185 74.8996C64.3825 72.3614 63.9121 69.5688 63.9121 66.5268C63.9121 63.5855 64.3921 60.8457 65.3569 58.3075C66.3217 55.7692 67.6945 53.5765 69.4705 51.7244C71.2465 49.8723 73.3681 48.4136 75.8305 47.3484C78.2929 46.2832 81.0241 45.7506 84.0193 45.7506C87.3697 45.7506 90.2881 46.3984 92.7793 47.6939C95.2657 48.9894 97.3105 50.7263 98.9089 52.9095C100.507 55.0927 101.664 57.5782 102.375 60.3707C103.085 63.1633 103.339 66.0806 103.138 69.1274H74.7313C74.8801 72.6157 75.7681 75.1539 77.3905 76.7229ZM89.6161 56.0187C88.3201 54.5985 86.3521 53.8883 83.7121 53.8883C81.9841 53.8883 80.5489 54.181 79.4113 54.7616C78.2689 55.347 77.3569 56.0667 76.6705 56.9304C75.9841 57.7941 75.5041 58.7057 75.2257 59.6702C74.9473 60.6346 74.7793 61.4983 74.7313 62.2564H92.3233C91.8097 59.5214 90.9073 57.439 89.6161 56.0187ZM72.8785 35.5593H94.8577V41.653H72.8785V35.5593Z" fill="white"/>
</g>
</svg>
