<svg width="121" height="115" viewBox="0 0 121 115" fill="none" xmlns="http://www.w3.org/2000/svg">
<path id="Vector" d="M0.940186 57.1543C0.940186 46.7903 3.62027 37.2266 8.98019 28.4629C14.3402 19.6992 21.6203 12.7645 30.8202 7.65868C40.0202 2.55286 50.0603 0 60.9402 0C71.8202 0 81.8603 2.55286 91.0602 7.65868C100.26 12.7645 107.54 19.6992 112.9 28.4629C118.26 37.2266 120.94 46.7903 120.94 57.1543C120.94 67.5184 118.26 77.0821 112.9 85.8458C107.54 94.6095 100.26 101.544 91.0602 106.65C81.8603 111.756 71.8202 114.309 60.9402 114.309C50.0603 114.309 40.0202 111.756 30.8202 106.65C21.6203 101.544 14.3402 94.6095 8.98019 85.8458C3.62027 77.0821 0.940186 67.5184 0.940186 57.1543ZM10.9002 57.1543C10.9002 69.0424 15.1002 79.5208 23.5002 88.5892C27.3402 81.4258 33.4202 74.6055 41.7402 68.128C50.0603 61.6504 58.1802 57.5735 66.1002 55.8969C64.9002 53.2298 63.7403 50.8293 62.6202 48.6955C48.8603 52.8868 33.9803 54.9825 17.9802 54.9825C14.8602 54.9825 12.5402 54.9444 11.0202 54.8682C11.0202 55.173 11.0003 55.554 10.9602 56.0112C10.9202 56.4685 10.9002 56.8495 10.9002 57.1543ZM12.4602 45.3805C14.2202 45.5329 16.8203 45.6092 20.2602 45.6092C33.6203 45.6092 46.3002 43.8945 58.3002 40.4653C52.2203 30.1775 45.5402 21.6043 38.2602 14.7458C31.9403 17.7941 26.5202 22.0235 22.0002 27.4341C17.4803 32.8447 14.3003 38.8269 12.4602 45.3805ZM30.3402 94.7619C39.3803 101.468 49.5803 104.821 60.9402 104.821C66.8603 104.821 72.7403 103.754 78.5802 101.62C76.9802 88.5892 73.8602 75.9772 69.2202 63.7842C61.8602 65.3083 54.4403 69.1567 46.9602 75.3294C39.4802 81.5021 33.9402 87.9796 30.3402 94.7619ZM48.7002 11.0879C55.7402 18.0227 62.2602 26.672 68.2602 37.036C79.1402 32.6923 87.3402 27.1674 92.8602 20.4613C83.5802 13.1455 72.9402 9.48762 60.9402 9.48762C56.8602 9.48762 52.7802 10.0211 48.7002 11.0879ZM72.5802 45.1519C73.7802 47.5905 75.1403 50.6768 76.6602 54.4109C82.5803 53.8774 89.0202 53.6108 95.9802 53.6108C100.94 53.6108 105.86 53.7251 110.74 53.9537C110.1 43.5897 106.18 34.3688 98.9802 26.291C93.7802 33.683 84.9803 39.97 72.5802 45.1519ZM79.6602 62.4125C83.7402 73.691 86.5002 85.2743 87.9402 97.1624C94.2602 93.2759 99.4202 88.2844 103.42 82.1879C107.42 76.0915 109.82 69.4997 110.62 62.4125C104.78 62.0315 99.4602 61.841 94.6602 61.841C90.2603 61.841 85.2602 62.0315 79.6602 62.4125Z" fill="#34344A"/>
</svg>
