<svg width="120" height="120" viewBox="0 0 120 120" fill="none" xmlns="http://www.w3.org/2000/svg">
<path id="Vector" d="M85.14 0H34.86C13.02 0 0 13.0151 0 34.8469V85.048C0 106.94 13.02 119.955 34.86 119.955H85.08C106.92 119.955 119.94 106.94 119.94 85.108V34.8469C120 13.0151 106.98 0 85.14 0ZM60 83.2487C47.16 83.2487 36.72 72.8126 36.72 59.9774C36.72 47.1423 47.16 36.7062 60 36.7062C72.84 36.7062 83.28 47.1423 83.28 59.9774C83.28 72.8126 72.84 83.2487 60 83.2487ZM95.52 29.269C95.22 29.9887 94.8 30.6485 94.26 31.2482C93.66 31.788 93 32.2079 92.28 32.5078C91.56 32.8077 90.78 32.9876 90 32.9876C88.38 32.9876 86.88 32.3878 85.74 31.2482C85.2 30.6485 84.78 29.9887 84.48 29.269C84.18 28.5493 84 27.7695 84 26.9898C84 26.2101 84.18 25.4304 84.48 24.7107C84.78 23.931 85.2 23.3312 85.74 22.7314C87.12 21.352 89.22 20.6922 91.14 21.1121C91.56 21.172 91.92 21.292 92.28 21.4719C92.64 21.5919 93 21.7718 93.36 22.0117C93.66 22.1916 93.96 22.4915 94.26 22.7314C94.8 23.3312 95.22 23.931 95.52 24.7107C95.82 25.4304 96 26.2101 96 26.9898C96 27.7695 95.82 28.5493 95.52 29.269Z" fill="#34344A"/>
</svg>
