<svg width="36" height="32" viewBox="0 0 36 32" fill="none" xmlns="http://www.w3.org/2000/svg">
<path id="Vector" d="M24.8488 0.148773H10.1742C3.79999 0.148773 0 3.51138 0 9.15187V22.1219C0 27.7779 3.79999 31.1405 10.1742 31.1405H24.8313C31.2054 31.1405 35.0054 27.7779 35.0054 22.1374V9.15187C35.0229 3.51138 31.2229 0.148773 24.8488 0.148773ZM17.5115 21.657C13.764 21.657 10.717 18.9608 10.717 15.6446C10.717 12.3285 13.764 9.63225 17.5115 9.63225C21.2589 9.63225 24.3059 12.3285 24.3059 15.6446C24.3059 18.9608 21.2589 21.657 17.5115 21.657ZM27.8783 7.71076C27.7907 7.89671 27.6681 8.06716 27.5105 8.22212C27.3354 8.36158 27.1428 8.47006 26.9326 8.54753C26.7225 8.62501 26.4948 8.6715 26.2672 8.6715C25.7944 8.6715 25.3566 8.51654 25.0239 8.22212C24.8663 8.06716 24.7437 7.89671 24.6561 7.71076C24.5686 7.52481 24.5161 7.32336 24.5161 7.12191C24.5161 6.92047 24.5686 6.71902 24.6561 6.53307C24.7437 6.33163 24.8663 6.17667 25.0239 6.02171C25.4267 5.6653 26.0396 5.49485 26.5999 5.60332C26.7225 5.61882 26.8276 5.64981 26.9326 5.69629C27.0377 5.72729 27.1428 5.77377 27.2478 5.83576C27.3354 5.88225 27.423 5.95972 27.5105 6.02171C27.6681 6.17667 27.7907 6.33163 27.8783 6.53307C27.9658 6.71902 28.0183 6.92047 28.0183 7.12191C28.0183 7.32336 27.9658 7.52481 27.8783 7.71076Z" fill="#34344A"/>
</svg>
