<svg width="16" height="12" viewBox="0 0 16 12" fill="none" xmlns="http://www.w3.org/2000/svg">
<path d="M4.88 5.424C9.456 7.792 11.952 9.152 12.368 9.504C12.816 9.824 13.04 10.208 13.04 10.656C13.04 11.104 12.944 11.408 12.752 11.568C12.56 11.696 12.384 11.76 12.224 11.76C12.064 11.76 11.984 11.728 11.984 11.664C11.984 11.056 11.024 10.256 9.104 9.264C7.216 8.272 5.328 7.312 3.44 6.384C1.552 5.456 0.624 4.752 0.656 4.272C0.656 3.664 1.104 3.36 2 3.36C4.752 3.36 7.44 3.088 10.064 2.544C12.688 2 14.256 1.344 14.768 0.576C14.832 0.479999 14.896 0.431999 14.96 0.431999C15.056 0.431999 15.152 0.543999 15.248 0.767999C15.376 0.959999 15.44 1.136 15.44 1.296C15.408 2.256 13.936 3.056 11.024 3.696C8.112 4.304 5.92 4.608 4.448 4.608C4.16 4.608 4.016 4.656 4.016 4.752C4.016 4.912 4.304 5.136 4.88 5.424Z" fill="#EF798A"/>
</svg>
