<svg width="121" height="87" viewBox="0 0 121 87" fill="none" xmlns="http://www.w3.org/2000/svg">
<path id="Vector" d="M109.69 0H12.1902C5.9769 0 0.940186 4.84157 0.940186 10.8141V75.6988C0.940186 81.6713 5.9769 86.5129 12.1902 86.5129H109.69C115.903 86.5129 120.94 81.6713 120.94 75.6988V10.8141C120.94 4.84157 115.903 0 109.69 0ZM109.69 10.8141V20.0072C104.435 24.1209 96.0571 30.5174 78.1464 43.9988C74.1992 46.9833 66.3805 54.1532 60.9402 54.0697C55.5008 54.1541 47.6795 46.9821 43.734 43.9988C25.8261 30.5195 17.446 24.1215 12.1902 20.0072V10.8141H109.69ZM12.1902 75.6988V33.8838C17.5607 37.9956 25.1767 43.7656 36.785 52.5034C41.9078 56.3796 50.8789 64.9365 60.9402 64.8844C70.952 64.9365 79.8095 56.5037 85.0932 52.5052C96.7014 43.7676 104.319 37.9961 109.69 33.884V75.6988H12.1902Z" fill="#34344A"/>
</svg>
