<svg width="120" height="121" viewBox="0 0 120 121" fill="none" xmlns="http://www.w3.org/2000/svg">
<path id="Vector" d="M116.578 85.5274L90.3274 74.2772C89.206 73.7993 87.9596 73.6986 86.7761 73.9903C85.5925 74.282 84.5357 74.9502 83.7647 75.8944L72.1395 90.0978C53.8949 81.4956 39.2121 66.8129 30.6099 48.5682L44.8133 36.943C45.7594 36.1735 46.4291 35.1166 46.7209 33.9325C47.0127 32.7484 46.9107 31.5014 46.4305 30.3804L35.1803 4.12992C34.6532 2.92148 33.721 1.93483 32.5444 1.3401C31.3677 0.74537 30.0205 0.579838 28.7349 0.872047L4.35945 6.49715C3.11998 6.78336 2.01413 7.48125 1.22237 8.47691C0.430613 9.47256 -0.000285523 10.7072 1.41945e-07 11.9793C1.41945e-07 72.0975 48.7274 120.731 108.752 120.731C110.024 120.732 111.26 120.301 112.256 119.51C113.252 118.718 113.95 117.612 114.236 116.372L119.861 91.9963C120.152 90.7044 119.983 89.3518 119.383 88.1711C118.784 86.9904 117.792 86.0556 116.578 85.5274Z" fill="#34344A"/>
</svg>
