<svg width="101" height="102" viewBox="0 0 101 102" fill="none" xmlns="http://www.w3.org/2000/svg">
<g id="Group 33">
<mask id="mask0_12_327" style="mask-type:alpha" maskUnits="userSpaceOnUse" x="0" y="0" width="101" height="102">
<circle id="Ellipse 2" cx="50.5" cy="51" r="50.5" fill="#D9D9D9"/>
</mask>
<g mask="url(#mask0_12_327)">
<path id="Vector" d="M-10 -13.5H114V115.5H-10V-13.5Z" fill="url(#paint0_linear_12_327)"/>
<path id="Vector_2" d="M25.1361 27.221C25.1361 27.221 31.7108 27.0366 37.1229 27.0366C42.5919 27.0366 46.4913 28.4082 49.1093 30.8184C51.6116 33.0959 53.2989 36.9785 53.2989 41.3984C53.2989 45.8182 52.0185 49.4348 49.6906 51.9777C46.665 55.2591 43.1392 57.2015 37.1229 57.4702C35.4608 57.5444 33.9226 57.5622 33.9226 57.5622V71.9295H25.1357L25.1361 27.221ZM33.9222 49.6022C34.8768 49.7012 35.4751 49.6536 36.89 49.6355C41.6033 49.5752 44.5118 46.5199 44.5118 41.8994C44.5118 37.7486 42.1135 34.3404 37.5887 34.1637C35.7853 34.0935 33.9222 34.1637 33.9222 34.1637V49.6022Z" fill="url(#paint1_linear_12_327)"/>
<path id="Vector_3" d="M56.6523 61.9203C58.4232 63.0787 62.602 64.8134 65.4505 64.8134C68.3607 64.8134 69.5625 63.7201 69.5625 62.0157C69.5625 60.309 68.6134 58.5162 65.0062 57.22C58.6148 54.9 56.1466 52.1229 56.2107 48.2358C56.2107 41.9578 61.1459 37.2505 68.8027 37.2505C72.4096 37.2505 75.2911 38.5075 77.1878 39.5303V47.0649C75.7944 46.2454 71.7767 44.4157 69.1195 44.4157C66.7767 44.4157 65.4488 45.4392 65.4488 47.1433C65.4488 48.7129 66.6519 49.5316 70.4484 50.9653C76.3323 53.1482 78.8006 56.3539 78.863 61.2663C78.863 67.4756 74.3729 72.4132 65.4488 72.1135C62.3861 72.0108 58.993 70.7201 56.6516 69.3575L56.6523 61.9203Z" fill="url(#paint2_linear_12_327)"/>
</g>
</g>
<defs>
<linearGradient id="paint0_linear_12_327" x1="34.17" y1="-11.6821" x2="69.5772" y2="99.5354" gradientUnits="userSpaceOnUse">
<stop stop-color="#090058"/>
<stop offset="1" stop-color="#070033"/>
</linearGradient>
<linearGradient id="paint1_linear_12_327" x1="12.8793" y1="-4.41487" x2="57.0718" y2="83.1856" gradientUnits="userSpaceOnUse">
<stop stop-color="#A0CBFF"/>
<stop offset="0.394" stop-color="#A0CBFE"/>
<stop offset="0.583" stop-color="#8EC2FC"/>
<stop offset="0.784" stop-color="#83BCFB"/>
<stop offset="1" stop-color="#7FBAFB"/>
</linearGradient>
<linearGradient id="paint2_linear_12_327" x1="35.5844" y1="-16.1385" x2="79.9522" y2="71.8092" gradientUnits="userSpaceOnUse">
<stop stop-color="#A0CBFF"/>
<stop offset="0.394" stop-color="#A0CBFE"/>
<stop offset="0.583" stop-color="#8EC2FC"/>
<stop offset="0.784" stop-color="#83BCFB"/>
<stop offset="1" stop-color="#7FBAFB"/>
</linearGradient>
</defs>
</svg>
