<svg width="101" height="102" viewBox="0 0 101 102" fill="none" xmlns="http://www.w3.org/2000/svg">
<g id="Group 34">
<mask id="mask0_12_405" style="mask-type:alpha" maskUnits="userSpaceOnUse" x="0" y="0" width="101" height="102">
<circle id="Ellipse 5" cx="50.5" cy="51" r="50.5" fill="#D9D9D9"/>
</mask>
<g mask="url(#mask0_12_405)">
<g id="vlpa">
<g id="vlpb">
<g id="vlpc">
<g id="vlpd">
<path id="Vector" d="M14.5938 -5.5H82.4062C92.6875 -5.5 101 3.75641 101 15.2051V87.7949C101 99.2436 92.6875 108.5 82.4062 108.5H14.5938C4.3125 108.5 -4 99.2436 -4 87.7949V15.2051C-4 3.75641 4.3125 -5.5 14.5938 -5.5Z" fill="#00005B"/>
</g>
</g>
</g>
<g id="vlpe">
<g id="vlpf">
<path id="Vector_2" d="M20.9375 74.3973V24.2179C20.9375 23.8768 21.0687 23.682 21.375 23.682C22.1187 23.682 22.8187 23.682 23.825 23.6332C24.875 23.5845 25.9687 23.5845 27.15 23.5358C28.3312 23.4871 29.6 23.4871 30.9563 23.4384C32.3125 23.3896 33.625 23.3896 34.9375 23.3896C38.525 23.3896 41.5 23.8768 43.95 24.8999C46.1375 25.7281 48.15 27.0922 49.8125 28.8948C51.2125 30.4538 52.3062 32.3538 53.0062 34.4486C53.6625 36.4948 54.0125 38.5897 54.0125 40.782C54.0125 44.9717 53.1375 48.4307 51.3875 51.1589C49.6375 53.8871 47.1875 55.9332 44.3437 57.1025C41.3687 58.3204 38.0875 58.7589 34.5 58.7589C33.45 58.7589 32.75 58.7589 32.3125 58.7102C31.875 58.6614 31.2625 58.6614 30.4312 58.6614V74.2999C30.475 74.6409 30.2562 74.9332 29.95 74.982H29.775H21.4625C21.1125 74.982 20.9375 74.7871 20.9375 74.3486V74.3973ZM30.475 33.1332V49.5025C31.0875 49.5512 31.6562 49.5999 32.1812 49.5999H34.5C36.2062 49.5999 37.9125 49.3076 39.5312 48.723C40.9312 48.2845 42.1562 47.3589 43.1187 46.1409C44.0375 44.923 44.475 43.2666 44.475 41.123C44.5187 39.6127 44.1687 38.1025 43.4687 36.7871C42.725 35.5204 41.675 34.5461 40.4062 34.0102C38.7875 33.2794 37.0375 32.9871 35.2437 33.0358C34.1062 33.0358 33.1 33.0358 32.2688 33.0845C31.3938 33.0358 30.7813 33.0845 30.475 33.1332Z" fill="#9999FF"/>
<path id="Vector_3" d="M60.3131 36.0078H67.9693C68.4068 36.0078 68.7568 36.3488 68.8881 36.7872C69.0193 37.177 69.1068 37.5667 69.1506 38.0052C69.2381 38.4924 69.3256 39.0283 69.3693 39.5154C69.4131 40.0513 69.4568 40.636 69.4568 41.2693C70.7693 39.5642 72.3443 38.1513 74.1381 37.0795C76.1506 35.8129 78.4693 35.1795 80.7881 35.1795C81.0943 35.1308 81.3568 35.3744 81.4006 35.7154V35.9103V45.4103C81.4006 45.8001 81.1818 45.9462 80.7006 45.9462C79.1256 45.8975 77.5068 46.0436 75.9756 46.4334C74.7068 46.7257 73.4818 47.1642 72.3006 47.7488C71.4693 48.1872 70.6818 48.7719 70.0693 49.5513V74.3975C70.0693 74.8847 69.8943 75.0795 69.5006 75.0795H60.8818C60.5318 75.1283 60.2256 74.8847 60.1818 74.4949V74.3001V47.3103C60.1818 46.1411 60.1818 44.9231 60.1381 43.6565C60.0943 42.3898 60.0943 41.1231 60.0506 39.8565C60.0506 38.736 59.9631 37.6642 59.8756 36.5437C59.8318 36.3001 59.9631 36.0565 60.1818 36.0078C60.1818 35.959 60.2693 35.959 60.3131 36.0078Z" fill="#9999FF"/>
</g>
</g>
</g>
</g>
</g>
</svg>
