<svg width="16" height="12" viewBox="0 0 16 12" fill="none" xmlns="http://www.w3.org/2000/svg">
<path d="M10.96 6.576C6.384 4.208 3.872 2.864 3.424 2.544C3.008 2.192 2.8 1.792 2.8 1.344C2.8 0.895999 2.896 0.607999 3.088 0.48C3.28 0.32 3.456 0.24 3.616 0.24C3.776 0.24 3.856 0.271999 3.856 0.335999C3.856 0.943999 4.8 1.744 6.688 2.736C8.608 3.728 10.512 4.688 12.4 5.616C14.288 6.544 15.216 7.248 15.184 7.728C15.184 8.336 14.736 8.64 13.84 8.64C11.088 8.64 8.4 8.912 5.776 9.456C3.152 10 1.584 10.656 1.072 11.424C1.008 11.52 0.928 11.568 0.832 11.568C0.768 11.568 0.672 11.472 0.544 11.28C0.448 11.056 0.4 10.864 0.4 10.704C0.432 9.744 1.904 8.96 4.816 8.352C7.728 7.712 9.92 7.392 11.392 7.392C11.68 7.392 11.824 7.344 11.824 7.248C11.824 7.088 11.536 6.864 10.96 6.576Z" fill="#EF798A"/>
</svg>
