<svg width="40" height="36" viewBox="0 0 40 36" fill="none" xmlns="http://www.w3.org/2000/svg">
<g id="Main Page" clip-path="url(#clip0_0_1)">
<g id="Group 8">
<g id="Group 4">
<path id="background" d="M20 35.9577C31.0457 35.9577 40 28.0177 40 18.2232C40 8.42862 31.0457 0.488586 20 0.488586C8.9543 0.488586 0 8.42862 0 18.2232C0 28.0177 8.9543 35.9577 20 35.9577Z" fill="#34344A"/>
<path id="behance" d="M14.1296 10.1873C14.992 10.1873 15.7792 10.2554 16.4912 10.3901C17.2032 10.5249 17.8112 10.7462 18.3184 11.0541C18.8256 11.362 19.2192 11.7706 19.4992 12.2814C19.7792 12.7921 19.9184 13.422 19.9184 14.1726C19.9184 14.9827 19.7104 15.658 19.296 16.1986C18.8816 16.7391 18.2672 17.1818 17.456 17.5265C18.5728 17.8117 19.4064 18.3111 19.9568 19.0233C20.5072 19.7355 20.7824 20.5953 20.7824 21.6012C20.7824 22.4113 20.6048 23.1136 20.2496 23.7067C19.8944 24.2997 19.416 24.7835 18.8144 25.1581C18.2128 25.534 17.528 25.8107 16.7584 25.9909C15.984 26.1711 15.1856 26.2619 14.3856 26.2604H5.60004V10.1873H14.1296ZM13.6224 16.6923C14.3328 16.6923 14.9168 16.5419 15.3744 16.2425C15.832 15.9418 16.0608 15.4551 16.0592 14.7798C16.0592 14.4052 15.9824 14.0974 15.8304 13.8576C15.6784 13.6178 15.4752 13.4291 15.2208 13.2944C14.9664 13.1596 14.6752 13.0659 14.3456 13.0134C14.0064 12.9609 13.6624 12.934 13.3168 12.9354H9.58724V16.6951L13.6224 16.6923ZM13.8512 23.5123C14.2272 23.5137 14.6016 23.4797 14.968 23.4116C15.3232 23.3435 15.6368 23.2314 15.9072 23.0739C16.1776 22.9164 16.3936 22.7022 16.5552 22.4326C16.7152 22.1631 16.7968 21.8169 16.7968 21.3969C16.7968 20.5726 16.5344 19.9824 16.0096 19.6306C15.4848 19.2773 14.7904 19.1014 13.928 19.1014H9.58724V23.5137L13.8512 23.5123ZM25.7968 23.1746C26.3376 23.64 27.1168 23.8727 28.1328 23.8727C28.8608 23.8727 29.4864 23.7109 30.0112 23.3889C30.536 23.0668 30.8576 22.7249 30.976 22.3645H34.1488C33.6416 23.7606 32.8624 24.758 31.8128 25.3581C30.7632 25.9583 29.4944 26.259 28.0048 26.259C26.9728 26.259 26.0416 26.1129 25.2128 25.8206C24.384 25.5284 23.6816 25.1112 23.1056 24.5707C22.5296 24.0301 22.0848 23.386 21.7728 22.6355C21.4608 21.885 21.304 21.0593 21.304 20.1598C21.304 19.2901 21.464 18.4799 21.7856 17.7294C22.1072 16.9789 22.5648 16.3305 23.1568 15.7829C23.7488 15.2352 24.456 14.8039 25.2768 14.489C26.0976 14.174 27.008 14.0165 28.0064 14.0165C29.1232 14.0165 30.096 14.208 30.9264 14.5911C31.7552 14.9742 32.4368 15.4878 32.9696 16.1333C33.5024 16.7788 33.888 17.5138 34.1248 18.3395C34.3616 19.1652 34.4464 20.0278 34.3792 20.9287H24.9104C24.96 21.9602 25.256 22.7107 25.7968 23.1746ZM29.872 17.0527C29.44 16.6327 28.784 16.4227 27.904 16.4227C27.328 16.4227 26.8496 16.5093 26.4704 16.6809C26.0896 16.854 25.7856 17.0668 25.5568 17.3222C25.328 17.5776 25.168 17.8472 25.0752 18.1323C24.9824 18.4175 24.9264 18.6729 24.9104 18.8971H30.7744C30.6032 18.0884 30.3024 17.4726 29.872 17.0527ZM24.2928 11.003H31.6192V12.8049H24.2928V11.003Z" fill="white"/>
</g>
</g>
</g>
<defs>
<clipPath id="clip0_0_1">
<rect width="1600" height="7069" fill="white" transform="translate(-923 -27)"/>
</clipPath>
</defs>
</svg>
